<?xml version="1.0" encoding="UTF-8" standalone="no"?>
<svg width="560px" height="560px" viewBox="0 0 560 560" version="1.1" xmlns="http://www.w3.org/2000/svg" xmlns:xlink="http://www.w3.org/1999/xlink" xmlns:sketch="http://www.bohemiancoding.com/sketch/ns">
    <title>wenku</title>
    <description>Created with Sketch (http://www.bohemiancoding.com/sketch)</description>
    <defs></defs>
    <g id="Page-1" stroke="none" stroke-width="1" fill="none" fill-rule="evenodd" sketch:type="MSPage">
        <g id="icon" sketch:type="MSLayerGroup" transform="translate(39.000000, 80.000000)" fill="#000000">
            <path d="M0,0 L0,400 L100,400 L100,0 L0,0 Z M20,50 L20,70 L80,70 L80,50 L20,50 Z M76.32,322.72 C76.56,322.72 76.74,322.54 76.74,322.36 C76.74,322.18 76.62,322 76.32,321.82 C73.14,319.06 72.12,318.28 68.94,315.82 C66.78,318.22 66.12,318.94 63.96,321.46 L51.66,321.46 L51.66,313.48 C53.7,312.76 54.42,312.34 54.42,311.8 C54.42,311.08 52.8,310.66 48.84,310.36 C47.88,310.3 46.38,310.18 44.46,310 C44.64,312.4 44.7,313.48 44.7,314.74 L44.7,321.46 L26.04,321.46 C24.9,321.46 22.5,321.16 21.18,320.86 L21.6,323.08 C23.22,322.84 24.9,322.72 26.1,322.72 L35.1,322.72 C36.6,331.78 39.9,339.04 45.72,346.6 C42.54,350.26 40.98,351.82 38.22,354.16 C33.18,358.42 28.74,361.06 21,364.54 L21.18,365.2 C28.08,363.46 32.04,362.08 36.3,360.04 C41.28,357.64 45.24,354.88 49.44,350.86 C54.12,355.72 57.96,358.6 63.3,361.42 C66.12,362.92 70.26,364.6 71.04,364.6 C71.34,364.6 71.64,364.36 71.7,363.94 C72,362.74 72.12,362.5 72.48,361.72 C73.56,359.26 74.94,358 77.58,356.92 L77.64,356.32 C71.94,355.66 68.22,354.7 63.42,352.66 C59.7,351.1 56.58,349.36 53.28,346.96 C57.18,342.7 59.82,338.5 62.1,332.86 C63.42,329.62 64.62,325.84 65.34,322.72 L76.32,322.72 Z M57.9,322.72 C56.52,329.8 53.52,336.34 48.6,343.06 C45.48,340 43.08,337.06 40.8,333.46 C38.52,329.74 37.56,327.46 36.24,322.72 L57.9,322.72 Z" id="book-1" sketch:type="MSShapeGroup"></path>
            <path d="M155,0 L155,400 L255,400 L255,0 L155,0 Z M175,50 L175,70 L235,70 L235,50 L175,50 Z M225.58,350.5 C225.4,344.44 225.28,339.04 225.28,334.3 C226.84,333.34 227.32,332.92 227.32,332.44 C227.32,332.2 227.14,331.96 226.66,331.6 C224.68,330.22 224.08,329.8 221.98,328.48 C220.6,329.74 220.18,330.1 218.86,331.42 L210.88,331.42 L210.88,328.36 L210.88,326.2 L229.66,326.2 C230.02,326.2 230.26,326.08 230.26,325.84 C230.26,325.72 230.14,325.54 229.9,325.24 C227.32,323.14 226.54,322.48 223.78,320.5 C222.04,322.42 221.5,323.02 219.76,324.94 L210.88,324.94 L210.88,322.78 C212.5,322.3 213.04,322 213.04,321.52 C213.04,320.8 212.02,320.56 208.42,320.26 C207.52,320.2 206.2,320.14 204.46,319.96 C204.64,321.94 204.7,322.42 204.76,324.94 L193.54,324.94 C191.38,324.94 190.3,324.82 188.44,324.46 L188.8,326.56 C190.24,326.32 191.62,326.2 193.36,326.2 L204.76,326.2 L204.82,331.42 L197.38,331.42 C194.62,329.92 193.78,329.5 190.84,328.12 C190.96,330.94 191.02,332.62 191.02,336.82 C191.02,341.14 190.96,343.72 190.78,351.28 C190.9,352.06 191.2,352.24 192.58,352.24 C196.06,352.24 196.9,351.94 197.02,350.8 L197.02,349.18 L204.82,349.18 C204.82,351.28 204.76,352.66 204.76,353.44 C204.76,353.8 204.76,354.52 204.7,355.3 L190.24,355.3 C188.44,355.3 186.88,355.12 185.2,354.76 L185.62,356.92 C187,356.68 188.56,356.56 190.24,356.56 L204.7,356.56 C204.58,362.38 204.58,362.38 204.46,365.02 C204.52,365.98 204.88,366.16 206.56,366.16 C210.28,366.16 211.12,365.92 211.24,364.78 C211.18,362.14 211.18,362.14 211.06,356.56 L231.4,356.56 C231.76,356.56 232,356.44 232,356.2 C232,356.08 231.94,355.9 231.7,355.66 C228.94,353.44 228.16,352.84 225.46,350.98 L225.58,350.5 Z M211.06,355.3 C211,351.64 211,349.6 211,349.18 L219.22,349.18 L219.22,351.1 C219.34,351.82 219.7,352 221.02,352 C222.22,352 223.12,351.88 224.44,351.58 C223.06,352.96 222.52,353.44 220.84,355.3 L211.06,355.3 Z M219.22,347.92 L211,347.92 L210.94,340.6 L219.22,340.6 L219.22,347.92 Z M219.22,339.34 L210.94,339.34 L210.94,332.68 L219.22,332.68 L219.22,339.34 Z M204.82,347.92 L197.02,347.92 L197.02,340.6 L204.82,340.6 L204.82,347.92 Z M204.82,339.34 L197.02,339.34 L197.02,332.68 L204.82,332.68 L204.82,338.32 L204.82,339.34 Z M208.18,317.2 L208.18,313.36 C210.04,312.88 210.7,312.46 210.7,311.86 C210.7,311.14 209.38,310.78 205.42,310.42 C204.52,310.36 203.08,310.18 201.28,310 C201.46,311.8 201.52,312.64 201.52,314.02 L201.52,317.2 L188.14,317.2 C184.84,315.4 183.82,314.86 180.28,313.24 C180.46,317.02 180.52,321.1 180.52,327.64 C180.52,347.2 179.38,354.94 175,365.14 L175.54,365.56 C181.42,359.38 184,354.64 185.68,347.26 C186.76,342.52 187.12,338.56 187.24,327.7 L187.42,318.46 L230.62,318.46 C231.04,318.46 231.28,318.34 231.28,318.1 C231.28,317.92 231.16,317.74 230.86,317.5 C227.98,315.22 227.08,314.56 223.96,312.34 C222.04,314.38 221.44,315.04 219.52,317.2 L208.18,317.2 Z" id="book-2" sketch:type="MSShapeGroup"></path>
            <rect id="Rectangle-2" sketch:type="MSShapeGroup" transform="translate(369.000000, 207.000000) rotate(-21.000000) translate(-369.000000, -207.000000) " x="320" y="19" width="98" height="376"></rect>
        </g>
    </g>
</svg>